<svg viewBox="0 0 24 24" fill="none" xmlns="http://www.w3.org/2000/svg">
<path d="M8.8259 3.98781C9.27203 3.98781 9.69969 4.16598 10.0119 4.48076L16.3184 10.7761C16.6562 11.0923 16.8482 11.5345 16.8482 11.9977C16.8482 12.4608 16.6562 12.903 16.3184 13.2192L10.0162 19.5102C9.70317 19.8296 9.27537 20.0103 8.82358 20.0122C8.37643 20.0103 7.94863 19.8296 7.63838 19.513C7.31402 19.1867 7.15183 18.7601 7.15183 18.3334C7.15183 17.9068 7.31402 17.4802 7.63955 17.1527L12.7687 12.0236L7.63838 6.84147C7.31402 6.51517 7.15183 6.08853 7.15183 5.66188C7.15183 5.23523 7.31402 4.80859 7.63794 4.48273C7.95211 4.16598 8.37977 3.98781 8.8259 3.98781Z" fill="currentColor"/>
</svg>
