<svg viewBox="0 0 24 24" fill="none" xmlns="http://www.w3.org/2000/svg">
<path d="M15.1741 3.98781C14.728 3.98781 14.3003 4.16598 13.9881 4.48076L7.68163 10.7761C7.34377 11.0923 7.15183 11.5345 7.15183 11.9977C7.15183 12.4608 7.34377 12.903 7.68163 13.2192L13.9838 19.5102C14.2968 19.8296 14.7246 20.0103 15.1764 20.0122C15.6236 20.0103 16.0514 19.8296 16.3616 19.513C16.686 19.1867 16.8482 18.7601 16.8482 18.3334C16.8482 17.9068 16.686 17.4802 16.3605 17.1527L11.2313 12.0236L16.3616 6.84147C16.686 6.51517 16.8482 6.08853 16.8482 5.66188C16.8482 5.23523 16.686 4.80859 16.3621 4.48273C16.0479 4.16598 15.6202 3.98781 15.1741 3.98781Z" fill="currentColor"/>
</svg>
