<svg width="24" height="24" viewBox="0 0 24 24" fill="none" xmlns="http://www.w3.org/2000/svg">
<path d="M19.87 9.6C19.7955 9.42872 19.6745 9.28173 19.5207 9.17568C19.367 9.06964 19.1866 9.00878 19 9H14.42L15.69 4.26C15.7304 4.11167 15.7362 3.95602 15.7067 3.80513C15.6772 3.65425 15.6133 3.51219 15.52 3.39C15.4268 3.26898 15.3072 3.17091 15.1703 3.10331C15.0333 3.03571 14.8827 3.00037 14.73 3H7.73C7.50424 2.99227 7.28251 3.0612 7.10092 3.19557C6.91934 3.32994 6.7886 3.52184 6.73 3.74L4.05 13.74C4.00955 13.8883 4.00385 14.044 4.03333 14.1949C4.06282 14.3458 4.12669 14.4878 4.22 14.61C4.31418 14.7324 4.43543 14.8312 4.57422 14.8989C4.71302 14.9666 4.86559 15.0012 5.02 15H8.89L7.08 21.74C7.0207 21.9573 7.03652 22.1883 7.1249 22.3956C7.21329 22.6028 7.36905 22.7741 7.56696 22.8817C7.76487 22.9894 7.99332 23.027 8.2153 22.9886C8.43728 22.9502 8.63979 22.8379 8.79 22.67L19.69 10.67C19.8198 10.5279 19.9058 10.3513 19.9377 10.1615C19.9697 9.97174 19.9461 9.77676 19.87 9.6ZM10.08 18.28L11.15 14.28C11.1904 14.1317 11.1962 13.976 11.1667 13.8251C11.1372 13.6742 11.0733 13.5322 10.98 13.41C10.8868 13.289 10.7672 13.1909 10.6303 13.1233C10.4933 13.0557 10.3427 13.0204 10.19 13.02H6.35L8.49 5H13.42L12.15 9.74C12.1092 9.89105 12.1045 10.0496 12.1361 10.2028C12.1677 10.356 12.2349 10.4997 12.3322 10.6223C12.4294 10.7448 12.5541 10.8428 12.6961 10.9084C12.8382 10.974 12.9936 11.0054 13.15 11H16.72L10.08 18.28Z" fill="currentColor"/>
</svg>
