<svg width="24" height="24" viewBox="0 0 24 24" fill="none" xmlns="http://www.w3.org/2000/svg">
<path d="M18 2C19.1046 2 20 2.89543 20 4V20C20 21.1046 19.1046 22 18 22H7.5C5.567 22 4 20.433 4 18.5V5.5C4 3.567 5.567 2 7.5 2H18ZM7.5 17C6.67157 17 6 17.6716 6 18.5C6 19.3284 6.67157 20 7.5 20H18V17H7.5ZM7.5 4C6.67157 4 6 4.67157 6 5.5V15.3359C6.45454 15.1201 6.96334 15 7.5 15H18V4H7.5ZM14 6C14.5523 6 15 6.44772 15 7C15 7.55228 14.5523 8 14 8H10C9.44772 8 9 7.55228 9 7C9 6.44772 9.44772 6 10 6H14Z" fill="currentColor"/>
</svg>
