<svg width="24" height="24" viewBox="0 0 24 24" fill="none" xmlns="http://www.w3.org/2000/svg">
<path d="M20.49 7.52C20.4843 7.49364 20.4843 7.46637 20.49 7.44C20.4851 7.41692 20.4851 7.39308 20.49 7.37V7.28L20.43 7.13C20.4056 7.08907 20.3753 7.052 20.34 7.02L20.25 6.94H20.2L16.26 4.45L12.54 2.15C12.4539 2.08173 12.3555 2.03079 12.25 2H12.17C12.0806 1.98509 11.9894 1.98509 11.9 2H11.8C11.6838 2.0257 11.5725 2.06957 11.47 2.13L4 6.78L3.91 6.85L3.82 6.93L3.72 7L3.67 7.06L3.61 7.21V7.3V7.36C3.60029 7.42632 3.60029 7.49369 3.61 7.56V16.29C3.60966 16.4599 3.65264 16.6272 3.73487 16.7759C3.81711 16.9246 3.93589 17.0499 4.08 17.14L11.58 21.78L11.73 21.84H11.81C11.9792 21.8937 12.1608 21.8937 12.33 21.84H12.41L12.56 21.78L20 17.21C20.1441 17.1199 20.2629 16.9946 20.3451 16.8459C20.4274 16.6972 20.4703 16.5299 20.47 16.36V7.63C20.47 7.63 20.49 7.56 20.49 7.52ZM12 4.17L13.78 5.27L8.19 8.73L6.4 7.63L12 4.17ZM11 19.17L5.5 15.81V9.42L11 12.82V19.17ZM12 11.06L10.09 9.91L15.68 6.44L17.6 7.63L12 11.06ZM18.5 15.78L13 19.2V12.82L18.5 9.42V15.78Z" fill="currentColor"/>
</svg>
