<svg viewBox="0 0 24 24" xmlns="http://www.w3.org/2000/svg">
<g>
<path d="M17.6569 3.51471L3.51472 17.6568C3.1242 18.0474 3.1242 18.6805 3.51472 19.0711L4.92894 20.4853C5.31946 20.8758 5.95263 20.8758 6.34315 20.4853L20.4853 6.34314C20.8758 5.95261 20.8758 5.31945 20.4853 4.92892L19.0711 3.51471C18.6805 3.12419 18.0474 3.12419 17.6569 3.51471Z" fill="currentColor"/>
<path d="M20.4853 17.6569L6.34315 3.51472C5.95263 3.1242 5.31946 3.1242 4.92894 3.51472L3.51473 4.92894C3.1242 5.31946 3.1242 5.95263 3.51473 6.34315L17.6569 20.4853C18.0474 20.8758 18.6806 20.8758 19.0711 20.4853L20.4853 19.0711C20.8758 18.6805 20.8758 18.0474 20.4853 17.6569Z" fill="currentColor"/>
</g>
</svg>
