<svg width="24" height="24" viewBox="0 0 24 24" fill="none" xmlns="http://www.w3.org/2000/svg">
<path d="M8.468 8.395L8.466 8.396L8.463 8.398L8.468 8.395ZM18.422 8.208C18.3524 8.14088 18.2752 8.08215 18.192 8.033C18.0742 7.96362 17.9433 7.91915 17.8076 7.90233C17.6719 7.88552 17.5342 7.89671 17.403 7.93523C17.2718 7.97376 17.1498 8.03878 17.0448 8.12629C16.9397 8.2138 16.8536 8.32193 16.792 8.444C16.4476 9.12292 15.9725 9.72714 15.394 10.222C15.4827 9.72355 15.5275 9.21828 15.528 8.712C15.5299 7.17214 15.1237 5.65927 14.3508 4.32743C13.5779 2.99558 12.4659 1.89233 11.128 1.13C10.9806 1.04623 10.8143 1.00132 10.6447 0.99951C10.4751 0.997695 10.3079 1.03903 10.1587 1.11963C10.0095 1.20022 9.88325 1.31744 9.79181 1.46024C9.70038 1.60305 9.64676 1.76677 9.636 1.936C9.58001 2.8841 9.33214 3.81097 8.9074 4.66045C8.48266 5.50993 7.88989 6.26435 7.165 6.878L6.935 7.065C6.17662 7.57524 5.50535 8.2043 4.947 8.928C4.07928 10.0211 3.47819 11.3014 3.19142 12.6672C2.90465 14.0331 2.94007 15.447 3.2949 16.7968C3.64972 18.1466 4.31417 19.3952 5.23555 20.4434C6.15693 21.4917 7.3099 22.3109 8.603 22.836C8.75482 22.8978 8.9195 22.9213 9.08255 22.9045C9.2456 22.8877 9.40202 22.8311 9.53804 22.7396C9.67405 22.6481 9.7855 22.5246 9.86257 22.38C9.93964 22.2353 9.97997 22.0739 9.98 21.91C9.97917 21.8041 9.96231 21.6989 9.93 21.598C9.70627 20.757 9.64182 19.8817 9.74 19.017C10.6865 20.8016 12.2055 22.216 14.053 23.033C14.2784 23.1338 14.5332 23.1473 14.768 23.071C16.2275 22.5999 17.5422 21.7634 18.5874 20.641C19.6326 19.5187 20.3734 18.1477 20.7396 16.6584C21.1057 15.1691 21.085 13.611 20.6793 12.1319C20.2737 10.6529 19.4967 9.30215 18.422 8.208ZM14.517 21.039C13.6453 20.5973 12.8763 19.9771 12.26 19.2187C11.6438 18.4603 11.194 17.5806 10.94 16.637C10.8623 16.3192 10.8023 15.9974 10.76 15.673C10.7315 15.4664 10.6392 15.2739 10.496 15.1224C10.3527 14.9709 10.1657 14.868 9.961 14.828C9.89808 14.8158 9.8341 14.8098 9.77 14.81C9.5943 14.8098 9.42165 14.856 9.26945 14.9437C9.11724 15.0315 8.99085 15.1578 8.903 15.31C8.07345 16.7413 7.65638 18.3742 7.698 20.028C6.96816 19.4607 6.35818 18.7542 5.90342 17.9494C5.44866 17.1446 5.15816 16.2575 5.04878 15.3396C4.93939 14.4217 5.01328 13.4913 5.26617 12.6021C5.51906 11.713 5.94592 10.8829 6.522 10.16C6.95942 9.59184 7.4871 9.0993 8.084 8.702C8.11012 8.68525 8.13517 8.66688 8.159 8.647C8.159 8.647 8.455 8.402 8.465 8.397C9.8902 7.19204 10.904 5.57247 11.365 3.764C12.4544 4.77137 13.1808 6.11026 13.4312 7.57276C13.6816 9.03527 13.4422 10.5395 12.75 11.852C12.6584 12.0272 12.6208 12.2256 12.6419 12.4221C12.663 12.6187 12.7419 12.8046 12.8686 12.9563C12.9953 13.1081 13.1641 13.2188 13.3537 13.2747C13.5434 13.3305 13.7453 13.3289 13.934 13.27C15.4657 12.7896 16.8135 11.8515 17.796 10.582C18.3867 11.4542 18.7729 12.4485 18.9259 13.4908C19.0788 14.5331 18.9946 15.5964 18.6794 16.6016C18.3642 17.6068 17.8262 18.5278 17.1055 19.2962C16.3848 20.0645 15.5 20.6602 14.517 21.039Z" fill="currentColor"/>
</svg>
