<svg viewBox="0 0 24 24" xmlns="http://www.w3.org/2000/svg">
<path d="M18.5 6H5.5C4.67157 6 4 6.67157 4 7.5C4 8.32843 4.67157 9 5.5 9H18.5C19.3284 9 20 8.32843 20 7.5C20 6.67157 19.3284 6 18.5 6Z" fill="currentColor"/>
<path d="M18.5 11H5.5C4.67157 11 4 11.6716 4 12.5C4 13.3284 4.67157 14 5.5 14H18.5C19.3284 14 20 13.3284 20 12.5C20 11.6716 19.3284 11 18.5 11Z" fill="currentColor"/>
<path d="M18.5 16H5.5C4.67157 16 4 16.6716 4 17.5C4 18.3284 4.67157 19 5.5 19H18.5C19.3284 19 20 18.3284 20 17.5C20 16.6716 19.3284 16 18.5 16Z" fill="currentColor"/>
</svg>
