<svg viewBox="0 0 24 24" xmlns="http://www.w3.org/2000/svg">
<path fill-rule="evenodd" clip-rule="evenodd" d="M15.9698 13.7071L21.6267 19.364L19.364 21.6267L13.7071 15.9698L15.9698 13.7071Z" fill="currentColor"/>
<path fill-rule="evenodd" clip-rule="evenodd" d="M10 2C14.4183 2 18 5.58172 18 10C18 14.4183 14.4183 18 10 18C5.58172 18 2 14.4183 2 10C2 5.58172 5.58172 2 10 2ZM10 4.35294C6.88122 4.35294 4.35294 6.88122 4.35294 10C4.35294 13.1188 6.88122 15.6471 10 15.6471C13.1188 15.6471 15.6471 13.1188 15.6471 10C15.6471 6.88122 13.1188 4.35294 10 4.35294Z" fill="currentColor"/>
</svg>
