<svg viewBox="0 0 24 24" fill="none" xmlns="http://www.w3.org/2000/svg">
  <path d="M18.2998 14.0943C17.0436 14.1026 15.857 14.6728 15.0656 15.6484L9.71024 13.1807C9.96204 12.4097 9.96204 11.5786 9.71024 10.8076L15.0656 8.33991C16.3698 9.91372 18.6177 10.3202 20.3904 9.30272C22.1632 8.28528 22.9462 6.13939 22.2452 4.21934C21.5443 2.29929 19.5629 1.16261 17.5516 1.52667C15.5402 1.89072 14.083 3.6498 14.0995 5.69373C14.1027 5.94389 14.1273 6.19332 14.173 6.43928L8.62867 8.99095C6.97882 7.37773 4.33654 7.39751 2.71102 9.03524C1.0855 10.673 1.0855 13.3153 2.71102 14.9531C4.33654 16.5908 6.97882 16.6106 8.62867 14.9973L14.173 17.549C14.1273 17.795 14.1027 18.0444 14.0995 18.2946C14.0995 20.6143 15.9801 22.4948 18.2998 22.4948C20.6196 22.4948 22.5001 20.6143 22.5001 18.2946C22.5001 15.9748 20.6196 14.0943 18.2998 14.0943ZM18.2998 3.5936C19.4597 3.5936 20.3999 4.53386 20.3999 5.69373C20.3999 6.85361 19.4597 7.79387 18.2998 7.79387C17.1399 7.79387 16.1997 6.85361 16.1997 5.69373C16.1997 4.53386 17.1399 3.5936 18.2998 3.5936ZM5.69898 14.0943C4.53911 14.0943 3.59884 13.154 3.59884 11.9941C3.59884 10.8343 4.53911 9.89401 5.69898 9.89401C6.85885 9.89401 7.79912 10.8343 7.79912 11.9941C7.79912 13.154 6.85885 14.0943 5.69898 14.0943ZM18.2998 20.3947C17.1399 20.3947 16.1997 19.4544 16.1997 18.2946C16.1997 17.1347 17.1399 16.1944 18.2998 16.1944C19.4597 16.1944 20.3999 17.1347 20.3999 18.2946C20.3999 19.4544 19.4597 20.3947 18.2998 20.3947Z" fill="currentColor"/>
</svg>
