<svg width="24" height="24" viewBox="0 0 24 24" fill="none" xmlns="http://www.w3.org/2000/svg">
<path d="M17.09 2.82C16.1703 2.06358 15.0933 1.52203 13.9377 1.23484C12.782 0.947659 11.5768 0.922089 10.41 1.16C8.85638 1.47382 7.43099 2.24207 6.31469 3.36728C5.19838 4.49249 4.44147 5.92393 4.14 7.48C3.91985 8.64672 3.95985 9.84765 4.25716 10.9971C4.55448 12.1466 5.10177 13.2163 5.86 14.13C6.56369 14.9241 6.96704 15.9395 7 17V20C7 20.7956 7.31607 21.5587 7.87868 22.1213C8.44129 22.6839 9.20435 23 10 23H14C14.7957 23 15.5587 22.6839 16.1213 22.1213C16.6839 21.5587 17 20.7956 17 20V17.19C17.0336 16.0192 17.4637 14.8944 18.22 14C19.5451 12.3608 20.1698 10.2648 19.9582 8.16763C19.7466 6.07043 18.7159 4.14149 17.09 2.8V2.82ZM15 20C15 20.2652 14.8946 20.5196 14.7071 20.7071C14.5196 20.8946 14.2652 21 14 21H10C9.73479 21 9.48043 20.8946 9.2929 20.7071C9.10536 20.5196 9 20.2652 9 20V19H15V20ZM16.67 12.76C15.6645 13.9526 15.0779 15.442 15 17H13V14C13 13.7348 12.8946 13.4804 12.7071 13.2929C12.5196 13.1054 12.2652 13 12 13C11.7348 13 11.4804 13.1054 11.2929 13.2929C11.1054 13.4804 11 13.7348 11 14V17H9C8.97362 15.4681 8.40695 13.9948 7.4 12.84C6.73564 12.044 6.28889 11.0894 6.10331 10.0693C5.91773 9.04927 5.99965 7.99852 6.34109 7.01953C6.68253 6.04054 7.27182 5.16674 8.05153 4.48333C8.83123 3.79991 9.77472 3.3302 10.79 3.12C11.6626 2.94034 12.5642 2.95724 13.4294 3.16947C14.2946 3.3817 15.1017 3.78392 15.7921 4.34695C16.4824 4.90998 17.0388 5.61968 17.4207 6.42452C17.8026 7.22936 18.0005 8.10914 18 9C18.0074 10.3699 17.5371 11.6995 16.67 12.76Z" fill="currentColor"/>
</svg>
