<svg width="24" height="24" viewBox="0 0 24 24" fill="none" xmlns="http://www.w3.org/2000/svg">
<path d="M18 6H14.41L16.71 3.71C16.8032 3.61676 16.8772 3.50607 16.9277 3.38425C16.9781 3.26243 17.0041 3.13186 17.0041 3C17.0041 2.86814 16.9781 2.73758 16.9277 2.61575C16.8772 2.49393 16.8032 2.38324 16.71 2.29C16.6168 2.19676 16.5061 2.1228 16.3842 2.07234C16.2624 2.02188 16.1319 1.99591 16 1.99591C15.7337 1.99591 15.4783 2.1017 15.29 2.29L12 5.54L10.83 3.54C10.7643 3.42575 10.6768 3.32555 10.5724 3.24513C10.468 3.1647 10.3488 3.10562 10.2216 3.07127C10.0944 3.03691 9.96168 3.02794 9.83099 3.04489C9.70031 3.06183 9.57425 3.10434 9.46 3.17C9.34575 3.23566 9.24555 3.32318 9.16513 3.42757C9.0847 3.53195 9.02562 3.65116 8.99126 3.77837C8.95691 3.90559 8.94794 4.03833 8.96488 4.16901C8.98182 4.29969 9.02434 4.42575 9.09 4.54L10 6H6C5.20435 6 4.44129 6.31607 3.87868 6.87868C3.31607 7.44129 3 8.20435 3 9V17C3 17.7957 3.31607 18.5587 3.87868 19.1213C4.44129 19.6839 5.20435 20 6 20V21C6 21.2652 6.10536 21.5196 6.29289 21.7071C6.48043 21.8946 6.73478 22 7 22C7.26522 22 7.51957 21.8946 7.70711 21.7071C7.89464 21.5196 8 21.2652 8 21V20H16V21C16 21.2652 16.1054 21.5196 16.2929 21.7071C16.4804 21.8946 16.7348 22 17 22C17.2652 22 17.5196 21.8946 17.7071 21.7071C17.8946 21.5196 18 21.2652 18 21V20C18.7956 20 19.5587 19.6839 20.1213 19.1213C20.6839 18.5587 21 17.7957 21 17V9C21 8.20435 20.6839 7.44129 20.1213 6.87868C19.5587 6.31607 18.7956 6 18 6ZM19 17C19 17.2652 18.8946 17.5196 18.7071 17.7071C18.5196 17.8946 18.2652 18 18 18H6C5.73478 18 5.48043 17.8946 5.29289 17.7071C5.10536 17.5196 5 17.2652 5 17V9C5 8.73479 5.10536 8.48043 5.29289 8.2929C5.48043 8.10536 5.73478 8 6 8H18C18.2652 8 18.5196 8.10536 18.7071 8.2929C18.8946 8.48043 19 8.73479 19 9V17Z" fill="currentColor"/>
</svg>
