<svg width="24" height="24" viewBox="0 0 24 24" fill="none" xmlns="http://www.w3.org/2000/svg">
<path d="M12 16C11.8022 16 11.6089 16.0586 11.4444 16.1685C11.28 16.2784 11.1518 16.4346 11.0761 16.6173C11.0004 16.8 10.9806 17.0011 11.0192 17.1951C11.0578 17.3891 11.153 17.5673 11.2929 17.7071C11.4327 17.847 11.6109 17.9422 11.8049 17.9808C11.9989 18.0194 12.2 17.9996 12.3827 17.9239C12.5654 17.8482 12.7216 17.72 12.8315 17.5556C12.9413 17.3911 13 17.1978 13 17C13 16.7348 12.8946 16.4804 12.7071 16.2929C12.5196 16.1054 12.2652 16 12 16ZM22.67 17.47L14.62 3.47C14.3598 3.00352 13.9798 2.61496 13.5192 2.34447C13.0586 2.07398 12.5341 1.93137 12 1.93137C11.4659 1.93137 10.9414 2.07398 10.4808 2.34447C10.0202 2.61496 9.64019 3.00352 9.38 3.47L1.38 17.47C1.11079 17.924 0.966141 18.441 0.960643 18.9688C0.955144 19.4966 1.089 20.0165 1.34868 20.4761C1.60837 20.9356 1.9847 21.3185 2.43968 21.586C2.89466 21.8536 3.41218 21.9964 3.94 22H20.06C20.5921 22.0052 21.1159 21.8689 21.5779 21.6049C22.0399 21.3409 22.4234 20.9589 22.689 20.4978C22.9546 20.0368 23.0928 19.5134 23.0895 18.9813C23.0862 18.4493 22.9414 17.9277 22.67 17.47ZM20.94 19.47C20.8523 19.626 20.7245 19.7555 20.5697 19.8452C20.4149 19.9349 20.2389 19.9815 20.06 19.98H3.94C3.76111 19.9815 3.5851 19.9349 3.43032 19.8452C3.27553 19.7555 3.14765 19.626 3.06 19.47C2.97223 19.318 2.92602 19.1455 2.92602 18.97C2.92602 18.7945 2.97223 18.622 3.06 18.47L11.06 4.47C11.1439 4.3062 11.2714 4.16873 11.4284 4.07274C11.5855 3.97675 11.766 3.92596 11.95 3.92596C12.134 3.92596 12.3145 3.97675 12.4716 4.07274C12.6286 4.16873 12.7561 4.3062 12.84 4.47L20.89 18.47C20.9892 18.6198 21.0462 18.7936 21.055 18.9731C21.0638 19.1526 21.0241 19.3312 20.94 19.49V19.47ZM12 8C11.7348 8 11.4804 8.10536 11.2929 8.29289C11.1054 8.48043 11 8.73478 11 9V13C11 13.2652 11.1054 13.5196 11.2929 13.7071C11.4804 13.8946 11.7348 14 12 14C12.2652 14 12.5196 13.8946 12.7071 13.7071C12.8946 13.5196 13 13.2652 13 13V9C13 8.73478 12.8946 8.48043 12.7071 8.29289C12.5196 8.10536 12.2652 8 12 8Z" fill="currentColor"/>
</svg>
