<?xml version="1.0" encoding="UTF-8"?>
<svg width="30px" height="30px" viewBox="0 0 30 30" version="1.1" xmlns="http://www.w3.org/2000/svg" xmlns:xlink="http://www.w3.org/1999/xlink">
    <title>email</title>
    <g id="email" stroke="none" stroke-width="1" fill="none" fill-rule="evenodd">
        <path d="M3.00571211,8.84770054 L14.3821784,17.7863183 L14.4951005,17.8632437 C14.8453958,18.0683781 15.2914714,18.0427363 15.6178216,17.7863183 L15.6178216,17.7863183 L26.9943638,8.84871277 C26.9980989,8.89865306 27,8.94910452 27,9 L27,20 C27,21.1045695 26.1045695,22 25,22 L5,22 C3.8954305,22 3,21.1045695 3,20 L3,9 C3,8.94876063 3.00192687,8.89797131 3.00571211,8.84770054 Z M25,7 C25.3084761,7 25.6006408,7.06983754 25.8615457,7.19456424 L15,15.728 L4.13845427,7.19456424 C4.39935916,7.06983754 4.69152386,7 5,7 L25,7 Z" id="Rectangle-2" fill="#808080"></path>
    </g>
</svg>