<?xml version="1.0" encoding="UTF-8"?>
<svg width="30px" height="30px" viewBox="0 0 30 30" version="1.1" xmlns="http://www.w3.org/2000/svg" xmlns:xlink="http://www.w3.org/1999/xlink">
    <title>linkedin</title>
    <g id="linkedin" stroke="none" stroke-width="1" fill="none" fill-rule="evenodd">
        <path d="M3.57733388,10.4688333 L8.60234203,10.4688333 L8.60234203,25.5838255 L3.57733388,25.5838255 L3.57733388,10.4688333 Z M6.12379686,3.18050577 C4.40454742,3.18050577 3.28126317,4.3108003 3.28126317,5.79224634 C3.28126317,7.24255579 4.37040642,8.4039869 6.05724468,8.4039869 L6.08974691,8.4039869 C7.84186276,8.4039869 8.93246269,7.24255579 8.93246269,5.79224633 C8.89996046,4.3108003 7.8419538,3.18050577 6.12379686,3.18050577 L6.12379686,3.18050577 Z M20.9343424,10.1134037 C18.2688867,10.1134037 17.0749533,11.5792815 16.4064271,12.6088828 L16.4064271,10.4688343 L11.3826936,10.4688343 C11.4493368,11.8866415 11.3826936,25.5838264 11.3826936,25.5838264 L16.4063361,25.5838264 L16.4063361,17.1425338 C16.4063361,16.6906891 16.4388383,16.2390265 16.5720337,15.9160982 C16.9345656,15.0137745 17.7617791,14.0790396 19.1497243,14.0790396 C20.9668446,14.0790396 21.6948217,15.4656192 21.6948217,17.4966897 L21.6948217,25.5838264 L26.7187373,25.5838264 L26.7187373,16.9160197 C26.7187373,12.2732086 24.239919,10.1134037 20.9343424,10.1134037 L20.9343424,10.1134037 Z" id="Shape" fill="#0083BE" fill-rule="nonzero"></path>
    </g>
</svg>