<?xml version="1.0" encoding="UTF-8"?>
<svg width="30px" height="30px" viewBox="0 0 30 30" version="1.1" xmlns="http://www.w3.org/2000/svg" xmlns:xlink="http://www.w3.org/1999/xlink">
    <title>pocket</title>
    <g id="pocket" stroke="none" stroke-width="1" fill="none" fill-rule="evenodd">
        <path d="M22.7785799,5.20675787 L7.22150039,5.20675787 C5.69252754,5.20675787 4.4531291,6.45617871 4.4531291,7.99642734 L4.4531291,15.7247291 C4.4531291,15.8681379 4.46390391,16.0090418 4.48503516,16.1467711 C4.46340234,16.3525723 4.4531291,16.5607119 4.4531291,16.7708555 C4.4531291,21.2007498 9.17485371,24.7932422 14.9999168,24.7932422 C20.8248943,24.7932422 25.5468709,21.2007498 25.5468709,16.7708555 C25.5468709,16.5606281 25.5355916,16.3525723 25.5148846,16.1467711 C25.5355916,16.0091256 25.5468709,15.8681379 25.5468709,15.7247291 L25.5468709,7.99650996 C25.5468709,6.45576094 24.3061365,5.20675787 22.7785799,5.20675787 Z M21.4676912,12.9760699 L16.0202338,18.4229408 C15.7435219,18.6996527 15.3799459,18.8359623 15.0171223,18.8328721 C14.6430229,18.845734 14.2650814,18.7092574 13.9787637,18.4229408 L8.53256133,12.9760699 C7.98531855,12.4290779 7.98665449,11.5418127 8.53256133,10.9958227 C9.07913555,10.4486625 9.96481406,10.4478281 10.5128086,10.9958227 L15.0000006,15.4832643 L19.4874393,10.9958227 C20.0329295,10.4486625 20.921867,10.4500828 21.4676912,10.9958227 C22.0150154,11.5426477 22.0150154,12.4282424 21.4676912,12.9760699 Z" id="Shape" fill="#E84352" fill-rule="nonzero"></path>
    </g>
</svg>