<?xml version="1.0" encoding="UTF-8"?>
<svg width="30px" height="30px" viewBox="0 0 30 30" version="1.1" xmlns="http://www.w3.org/2000/svg" xmlns:xlink="http://www.w3.org/1999/xlink">
    <title>reddit</title>
    <g id="reddit" stroke="none" stroke-width="1" fill="none" fill-rule="evenodd">
        <path d="M29,13.210434 C29,11.5848312 27.6758499,10.2643577 26.045721,10.2643577 C25.2491208,10.2643577 24.5263775,10.5800088 23.9935522,11.0903113 C21.9730363,9.63831653 19.1875733,8.69662429 16.0908558,8.59140728 L17.4361079,2.27312582 L21.8358734,3.20429636 C21.8886284,4.31959667 22.8065651,5.2086804 23.9355217,5.2086804 C25.1014068,5.2086804 26.045721,4.26698816 26.045721,3.1043402 C26.045721,1.94169224 25.1014068,1 23.9355217,1 C23.1072685,1 22.3950762,1.4787374 22.0521688,2.17316966 L17.14068,1.13152126 C17.003517,1.09995616 16.8610785,1.12626041 16.7450176,1.20517317 C16.6289566,1.27882508 16.5445487,1.39982464 16.5181712,1.53660675 L15.0146542,8.58614643 C11.8704572,8.67558089 9.04279015,9.61201228 6.99589683,11.0850504 C6.46307151,10.5747479 5.74560375,10.2643577 4.95427902,10.2643577 C3.32415006,10.2643577 2,11.5848312 2,13.210434 C2,14.4099079 2.71746776,15.4357738 3.74618992,15.8987286 C3.69871043,16.1933363 3.67760844,16.4879439 3.67760844,16.7878124 C3.67760844,21.3226655 8.96893318,25 15.5,25 C22.0310668,25 27.3118406,21.3226655 27.3118406,16.7878124 C27.3118406,16.4879439 27.2854631,16.1933363 27.2432591,15.9039895 C28.2772567,15.4462955 29,14.4151688 29,13.210434 Z M9,15 C9,13.895 9.9,13 11,13 C12.105,13 13,13.9 13,15 C13,16.105 12.105,17 11,17 C9.895,17 9,16.105 9,15 Z M20.842539,20.7515924 C19.4503042,21.910828 16.7780294,22 15.9977659,22 C15.2124027,22 12.5452276,21.910828 11.1529928,20.7515924 C10.9490024,20.581741 10.9490024,20.3014862 11.1529928,20.1273885 C11.3569833,19.9575372 11.6935675,19.9575372 11.9026577,20.1273885 C12.7798166,20.8577495 14.6565287,21.1167728 15.9977659,21.1167728 C17.3390031,21.1167728 19.2157152,20.8577495 20.0979738,20.1273885 C20.3070641,19.9575372 20.6385485,19.9575372 20.8476387,20.1273885 C21.0516292,20.3014862 21.0516292,20.5774947 20.842539,20.7515924 Z M20,17 C18.895,17 18,16.1 18,15 C18,13.895 18.9,13 20,13 C21.105,13 22,13.9 22,15 C22,16.105 21.1,17 20,17 Z" id="Shape" fill="#FF4500" fill-rule="nonzero"></path>
    </g>
</svg>