<?xml version="1.0" encoding="UTF-8"?>
<svg width="840px" height="400px" viewBox="0 0 840 400" version="1.1" xmlns="http://www.w3.org/2000/svg" xmlns:xlink="http://www.w3.org/1999/xlink">
    <title>home-splash-small</title>
    <g id="home-splash-small" stroke="none" stroke-width="1" fill="none" fill-rule="evenodd">
        <rect fill="#FFFFFF" x="0" y="0" width="840" height="400"></rect>
        <g id="Group" transform="translate(59.078103, 131.607625)" fill="#EA4848" fill-rule="nonzero">
            <g id="D">
                <path d="M96.2324963,136.840127 C105.268797,136.840127 113.494489,135.13393 120.909572,131.721536 C128.324654,128.309143 134.663354,123.550575 139.92567,117.445833 C145.187987,111.341092 149.267611,104.109321 152.164543,95.7505215 C155.061475,87.3917217 156.509941,78.2659159 156.509941,68.3731041 C156.509941,58.5429051 155.061475,49.4484057 152.164543,41.0896058 C149.267611,32.730806 145.187987,25.5146886 139.92567,19.4412535 C134.663354,13.3678184 128.324654,8.60925075 120.909572,5.16555045 C113.494489,1.72185015 105.268797,0 96.2324963,0 L58.9174111,0 L58.9174111,136.840127 L96.2324963,136.840127 Z M86.0263147,112.421162 L86.0263147,24.4189658 L96.9523546,24.4189658 C102.108362,24.4189658 106.706244,25.4364227 110.746003,27.4713365 C114.785761,29.5062503 118.200951,32.4177424 120.991574,36.2058127 C123.782196,39.993883 125.921673,44.6115721 127.410005,50.0588798 C128.898337,55.5061875 129.642503,61.610929 129.642503,68.3731041 C129.642503,75.197892 128.898337,81.3339398 127.410005,86.7812475 C125.921673,92.2285553 123.782196,96.8462443 120.991574,100.634315 C118.200951,104.422385 114.785761,107.333877 110.746003,109.368791 C106.706244,111.403705 102.108362,112.421162 96.9523546,112.421162 L86.0263147,112.421162 Z" id=":D"></path>
                <path d="M18.3410087,55.5153332 C20.9115288,55.5153332 23.3083652,55.0505514 25.5315178,54.1209876 C27.7546703,53.1914238 29.6999288,51.9043354 31.3672933,50.2597226 C33.0346577,48.6151097 34.3372861,46.666601 35.2751786,44.4141964 C36.2130711,42.1617918 36.6820174,39.7485012 36.6820174,37.1743246 C36.6820174,34.6001479 36.2130711,32.2047335 35.2751786,29.9880814 C34.3372861,27.7714293 33.0346577,25.8407968 31.3672933,24.1961839 C29.6999288,22.551571 27.7546703,21.2466065 25.5315178,20.2812902 C23.3083652,19.315974 20.9115288,18.8333159 18.3410087,18.8333159 C15.701015,18.8333159 13.2694419,19.315974 11.0462893,20.2812902 C8.82313675,21.2466065 6.89524664,22.551571 5.26261897,24.1961839 C3.6299913,25.8407968 2.34473122,27.7714293 1.40683873,29.9880814 C0.468946245,32.2047335 0,34.6001479 0,37.1743246 C0,39.7485012 0.468946245,42.1617918 1.40683873,44.4141964 C2.34473122,46.666601 3.6299913,48.6151097 5.26261897,50.2597226 C6.89524664,51.9043354 8.82313675,53.1914238 11.0462893,54.1209876 C13.2694419,55.0505514 15.701015,55.5153332 18.3410087,55.5153332 Z" id="Path"></path>
                <path d="M18.3410087,120.86499 C20.9115288,120.86499 23.3083652,120.400208 25.5315178,119.470644 C27.7546703,118.54108 29.6999288,117.253992 31.3672933,115.609379 C33.0346577,113.964766 34.3372861,112.016257 35.2751786,109.763853 C36.2130711,107.511448 36.6820174,105.098158 36.6820174,102.523981 C36.6820174,99.9498043 36.2130711,97.5543899 35.2751786,95.3377378 C34.3372861,93.1210857 33.0346577,91.1904532 31.3672933,89.5458403 C29.6999288,87.9012275 27.7546703,86.5962629 25.5315178,85.6309467 C23.3083652,84.6656304 20.9115288,84.1829723 18.3410087,84.1829723 C15.701015,84.1829723 13.2694419,84.6656304 11.0462893,85.6309467 C8.82313675,86.5962629 6.89524664,87.9012275 5.26261897,89.5458403 C3.6299913,91.1904532 2.34473122,93.1210857 1.40683873,95.3377378 C0.468946245,97.5543899 0,99.9498043 0,102.523981 C0,105.098158 0.468946245,107.511448 1.40683873,109.763853 C2.34473122,112.016257 3.6299913,113.964766 5.26261897,115.609379 C6.89524664,117.253992 8.82313675,118.54108 11.0462893,119.470644 C13.2694419,120.400208 15.701015,120.86499 18.3410087,120.86499 Z" id="Path"></path>
            </g>
        </g>
        <path d="M336.851533,256.28 L336.851533,208.051884 L384.759196,208.051884 L384.759196,256.28 L403.986352,256.28 L403.986352,144.12159 L384.759196,144.12159 L384.759196,189.786085 L336.851533,189.786085 L336.851533,144.12159 L317.624377,144.12159 L317.624377,256.28 L336.851533,256.28 Z M458.463294,178.410018 C479.292713,178.410018 496.75738,194.592874 496.75738,217.985914 L496.75738,217.985914 L496.75661,218.956139 C496.751575,220.525865 496.726882,222.860982 496.597154,225.196098 L496.597154,225.196098 L439.877044,225.196098 C441.31908,231.925602 449.170169,240.577823 461.187141,240.577823 C473.837203,240.577823 481.268139,233.618988 481.963007,232.940077 L481.963007,232.940077 L482.01656,232.88696 L491.630138,247.307327 C491.630138,247.307327 479.613166,258.202716 461.187141,258.202716 C438.114554,258.202716 420.329435,240.577823 420.329435,218.306367 C420.329435,196.034911 436.512291,178.410018 458.463294,178.410018 Z M458.463294,195.874685 C446.125869,195.874685 440.517949,204.526905 439.877044,211.25641 L439.877044,211.25641 L477.530224,211.25641 C477.209771,204.687131 471.121172,195.874685 458.463294,195.874685 Z M532.327619,256.28 L532.327619,135.148917 L513.100463,135.148917 L513.100463,256.28 L532.327619,256.28 Z M575.268267,256.28 L575.268267,135.148917 L556.041111,135.148917 L556.041111,256.28 L575.268267,256.28 Z M632.148604,178.410018 C654.740512,178.410018 672.685857,195.874685 672.685857,218.306367 C672.685857,240.577823 654.740512,258.202716 632.148604,258.202716 C609.556695,258.202716 591.61135,240.577823 591.61135,218.306367 C591.61135,195.874685 609.556695,178.410018 632.148604,178.410018 Z M632.148604,196.355364 C619.170273,196.355364 611.158958,206.449621 611.158958,218.306367 C611.158958,230.163113 619.170273,240.25737 632.148604,240.25737 C645.126934,240.25737 653.138249,230.163113 653.138249,218.306367 C653.138249,206.449621 645.126934,196.355364 632.148604,196.355364 Z M698.161839,258.202716 C705.211796,258.202716 710.819717,252.594795 710.819717,245.544838 C710.819717,238.494881 705.211796,232.88696 698.161839,232.88696 C691.111882,232.88696 685.503961,238.494881 685.503961,245.544838 C685.503961,252.594795 691.111882,258.202716 698.161839,258.202716 Z M737.19113,258.202716 C744.241087,258.202716 749.849007,252.594795 749.849007,245.544838 C749.849007,238.494881 744.241087,232.88696 737.19113,232.88696 C730.141173,232.88696 724.533252,238.494881 724.533252,245.544838 C724.533252,252.594795 730.141173,258.202716 737.19113,258.202716 Z M776.22042,258.202716 C783.270378,258.202716 788.878298,252.594795 788.878298,245.544838 C788.878298,238.494881 783.270378,232.88696 776.22042,232.88696 C769.170463,232.88696 763.562543,238.494881 763.562543,245.544838 C763.562543,252.594795 769.170463,258.202716 776.22042,258.202716 Z" id="Hello..." fill="#323232" fill-rule="nonzero"></path>
        <line x1="267.5" y1="89" x2="267.5" y2="311" id="Path-2" stroke="#DDDDDD" stroke-width="3" stroke-dasharray="3"></line>
    </g>
</svg>