<?xml version="1.0" encoding="UTF-8"?>
<svg width="16px" height="16px" viewBox="0 0 16 16" version="1.1" xmlns="http://www.w3.org/2000/svg" xmlns:xlink="http://www.w3.org/1999/xlink">
    <title>favicon</title>
    <g id="favicon" stroke="none" stroke-width="1" fill="none" fill-rule="evenodd">
        <g id="Group" transform="translate(0.000000, 1.000000)" fill="#EA4848" fill-rule="nonzero">
            <g>
                <path d="M9.83784118,13.9891564 C10.7616216,13.9891564 11.6025335,13.814732 12.3605768,13.4658832 C13.1186202,13.1170344 13.766625,12.6305664 14.3045912,12.0064791 C14.8425575,11.3823918 15.2596172,10.6430884 15.5557703,9.78856893 C15.8519234,8.93404943 16,8.00111896 16,6.98977752 C16,5.98483698 15.8519234,5.05510696 15.5557703,4.20058745 C15.2596172,3.34606795 14.8425575,2.60836478 14.3045912,1.98747795 C13.766625,1.36659112 13.1186202,0.880123085 12.3605768,0.528073851 C11.6025335,0.176024617 10.7616216,0 9.83784118,0 L6.0231227,0 L6.0231227,13.9891564 L9.83784118,13.9891564 Z M8.79446397,11.4928073 L8.79446397,2.49634911 L9.91143224,2.49634911 C10.4385305,2.49634911 10.9085717,2.60036366 11.3215559,2.80839275 C11.7345401,3.01642185 12.0836747,3.31406347 12.3689599,3.70131763 C12.654245,4.08857179 12.8729636,4.56063781 13.0251157,5.11751568 C13.1772677,5.67439356 13.2533438,6.29848084 13.2533438,6.98977752 C13.2533438,7.68747509 13.1772677,8.31476282 13.0251157,8.8716407 C12.8729636,9.42851858 12.654245,9.9005846 12.3689599,10.2878388 C12.0836747,10.6750929 11.7345401,10.9727345 11.3215559,11.1807636 C10.9085717,11.3887927 10.4385305,11.4928073 9.91143224,11.4928073 L8.79446397,11.4928073 Z" id=":D"></path>
                <path d="M1.875,5.67532853 C2.13778409,5.67532853 2.3828125,5.62781391 2.61008523,5.53278467 C2.83735795,5.43775543 3.03622159,5.30617648 3.20667614,5.13804783 C3.37713068,4.96991917 3.5102983,4.77072327 3.60617898,4.54046011 C3.70205966,4.31019695 3.75,4.06348642 3.75,3.80032853 C3.75,3.53717063 3.70205966,3.29228759 3.60617898,3.06567941 C3.5102983,2.83907122 3.37713068,2.6417028 3.20667614,2.47357414 C3.03622159,2.30544549 2.83735795,2.17203905 2.61008523,2.07335484 C2.3828125,1.97467063 2.13778409,1.92532853 1.875,1.92532853 C1.60511364,1.92532853 1.35653409,1.97467063 1.12926136,2.07335484 C0.901988636,2.17203905 0.704900568,2.30544549 0.537997159,2.47357414 C0.37109375,2.6417028 0.239701705,2.83907122 0.143821023,3.06567941 C0.0479403409,3.29228759 0,3.53717063 0,3.80032853 C0,4.06348642 0.0479403409,4.31019695 0.143821023,4.54046011 C0.239701705,4.77072327 0.37109375,4.96991917 0.537997159,5.13804783 C0.704900568,5.30617648 0.901988636,5.43775543 1.12926136,5.53278467 C1.35653409,5.62781391 1.60511364,5.67532853 1.875,5.67532853 Z" id="Path"></path>
                <path d="M1.875,12.3560192 C2.13778409,12.3560192 2.3828125,12.3085046 2.61008523,12.2134753 C2.83735795,12.1184461 3.03622159,11.9868672 3.20667614,11.8187385 C3.37713068,11.6506099 3.5102983,11.4514139 3.60617898,11.2211508 C3.70205966,10.9908876 3.75,10.7441771 3.75,10.4810192 C3.75,10.2178613 3.70205966,9.97297827 3.60617898,9.74637008 C3.5102983,9.5197619 3.37713068,9.32239348 3.20667614,9.15426482 C3.03622159,8.98613617 2.83735795,8.85272973 2.61008523,8.75404552 C2.3828125,8.65536131 2.13778409,8.60601921 1.875,8.60601921 C1.60511364,8.60601921 1.35653409,8.65536131 1.12926136,8.75404552 C0.901988636,8.85272973 0.704900568,8.98613617 0.537997159,9.15426482 C0.37109375,9.32239348 0.239701705,9.5197619 0.143821023,9.74637008 C0.0479403409,9.97297827 0,10.2178613 0,10.4810192 C0,10.7441771 0.0479403409,10.9908876 0.143821023,11.2211508 C0.239701705,11.4514139 0.37109375,11.6506099 0.537997159,11.8187385 C0.704900568,11.9868672 0.901988636,12.1184461 1.12926136,12.2134753 C1.35653409,12.3085046 1.60511364,12.3560192 1.875,12.3560192 Z" id="Path"></path>
            </g>
        </g>
    </g>
</svg>