<?xml version="1.0" encoding="UTF-8"?>
<svg width="30px" height="30px" viewBox="0 0 30 30" version="1.1" xmlns="http://www.w3.org/2000/svg" xmlns:xlink="http://www.w3.org/1999/xlink">
    <title>email-alt</title>
    <g id="email-alt" stroke="none" stroke-width="1" fill="none" fill-rule="evenodd">
        <rect id="Rectangle" fill="#6B6B6B" fill-rule="nonzero" x="0" y="0" width="30" height="30" rx="4"></rect>
        <path d="M4.94889879,8.56009475 C4.77420029,8.72536055 4.66515456,8.95983673 4.66515456,9.22028195 L4.66515456,20.0170058 C4.66515456,20.5178849 5.06051186,20.9239271 5.56867517,20.9239271 L24.4789928,20.9239271 C24.9779938,20.9239271 25.3825137,20.5186334 25.3825137,20.0170058 L25.3825137,9.22028195 C25.3825137,8.95930259 25.2751798,8.72407021 25.1004811,8.55860625 L15.0238341,17.3209081 L4.94889879,8.56009475 Z M5.56914743,7.41260589 C4.57241286,7.41260589 3.76439982,8.21834344 3.76439982,9.20876517 L3.76439982,20.0285228 C3.76439982,21.0205141 4.56585824,21.8246818 5.56914743,21.8246818 L24.4785208,21.8246818 C25.4752554,21.8246818 26.2832685,21.0189441 26.2832685,20.0285228 L26.2832685,9.20876517 C26.2832685,8.21677379 25.4818102,7.41260589 24.4785208,7.41260589 L5.56914743,7.41260589 L5.56914743,7.41260589 Z M15.0238341,16.1499377 L24.0313816,8.31336064 L6.01628668,8.31336064 L15.0238341,16.1499377 Z" id="Shape" stroke="#FFFFFF" fill="#FFFFFF"></path>
    </g>
</svg>