<?xml version="1.0" encoding="UTF-8"?>
<svg width="30px" height="30px" viewBox="0 0 30 30" version="1.1" xmlns="http://www.w3.org/2000/svg" xmlns:xlink="http://www.w3.org/1999/xlink">
    <title>linkedin-alt</title>
    <g id="linkedin-alt" stroke="none" stroke-width="1" fill="none" fill-rule="evenodd">
        <rect id="Rectangle" fill="#0083BE" fill-rule="nonzero" x="0" y="0" width="30" height="30" rx="4"></rect>
        <path d="M4.26527964,10.5064708 L8.76769191,10.5064708 L8.76769191,23.9999992 L4.26527964,23.9999992 L4.26527964,10.5064708 Z M6.546913,4 C5.00646379,4 4,5.00904196 4,6.33156558 C4,7.6262928 4.97587343,8.66313116 6.48728218,8.66313116 L6.5164042,8.66313116 C8.08630173,8.66313116 9.06348035,7.6262928 9.06348035,6.33156558 C9.03435832,5.00904196 8.08638331,4 6.546913,4 L6.546913,4 Z M19.8171764,10.18917 C17.4289255,10.18917 16.35916,11.4977954 15.7601599,12.4169461 L15.7601599,10.5064716 L11.2588897,10.5064716 C11.318602,11.7721833 11.2588897,24 11.2588897,24 L15.7600783,24 L15.7600783,16.4642487 C15.7600783,16.0608757 15.7892003,15.6576653 15.9085435,15.3693793 C16.2333724,14.5638525 16.9745566,13.7293914 18.2181569,13.7293914 C19.8462985,13.7293914 20.4985666,14.9672254 20.4985666,16.7804125 L20.4985666,24 L25,24 L25,16.2620339 C25,12.1172813 22.7789764,10.18917 19.8171764,10.18917 L19.8171764,10.18917 Z" id="Shape" fill="#FFFFFF" fill-rule="nonzero"></path>
    </g>
</svg>