<?xml version="1.0" encoding="UTF-8"?>
<svg width="30px" height="30px" viewBox="0 0 30 30" version="1.1" xmlns="http://www.w3.org/2000/svg" xmlns:xlink="http://www.w3.org/1999/xlink">
    <title>pocket-alt</title>
    <g id="pocket-alt" stroke="none" stroke-width="1" fill="none" fill-rule="evenodd">
        <rect id="Rectangle" fill="#E84352" fill-rule="nonzero" x="0" y="0" width="30" height="30" rx="4"></rect>
        <path d="M22.5064865,6 L8.49358578,6 C7.1163771,6 6,7.14821909 6,8.56370922 L6,15.6660268 C6,15.7978196 6.00970531,15.9273105 6.02873909,16.0538838 C6.00925353,16.2430153 6,16.4342959 6,16.627418 C6,20.6984957 10.2530514,24 15.4999251,24 C20.7467217,24 25,20.6984957 25,16.627418 C25,16.4342189 24.9898403,16.2430153 24.9711886,16.0538838 C24.9898403,15.9273875 25,15.7978196 25,15.6660268 L25,8.56378515 C25,7.14783515 23.8824196,6 22.5064865,6 Z M21.3257152,13.1400061 L16.4189665,18.1456862 C16.1697207,18.3999848 15.8422329,18.5252534 15.5154227,18.5224135 C15.178456,18.5342336 14.8380287,18.4088115 14.5801305,18.1456862 L9.67451223,13.1400061 C9.18158818,12.6373198 9.18279152,11.8219221 9.67451223,11.3201567 C10.1668341,10.817316 10.9646011,10.8165492 11.4582023,11.3201567 L15.5000005,15.4441203 L19.5420209,11.3201567 C20.0333664,10.817316 20.8340689,10.8186212 21.3257152,11.3201567 C21.8187127,11.8226895 21.8187127,12.636552 21.3257152,13.1400061 Z" id="Shape" fill="#FFFFFF" fill-rule="nonzero"></path>
    </g>
</svg>