<?xml version="1.0" encoding="UTF-8"?>
<svg width="30px" height="30px" viewBox="0 0 30 30" version="1.1" xmlns="http://www.w3.org/2000/svg" xmlns:xlink="http://www.w3.org/1999/xlink">
    <title>reddit-alt</title>
    <g id="reddit-alt" stroke="none" stroke-width="1" fill="none" fill-rule="evenodd">
        <rect id="Rectangle" fill="#EF4623" fill-rule="nonzero" x="0" y="0" width="30" height="30" rx="4"></rect>
        <path d="M20.0384063,15.8714092 C20.0987109,16.0262256 20.1263789,16.1860107 20.1263789,16.3446064 C20.1263789,16.6638721 20.0159297,16.9742432 19.8308438,17.2276377 C19.6478496,17.4776279 19.3884375,17.6722002 19.0831875,17.7576592 L19.0838906,17.7576592 C19.0813125,17.7587725 19.0789688,17.7587725 19.0771816,17.759417 C19.0762441,17.759417 19.0741934,17.7604131 19.073373,17.7604131 C18.9302754,17.8094443 18.7837734,17.8324424 18.6383848,17.8324424 C18.2975215,17.8324424 17.9630449,17.7094541 17.6952539,17.5001162 C17.4299883,17.2917451 17.228959,16.992208 17.1658359,16.6365908 L17.1651328,16.6365908 C17.1651328,16.6353604 17.1651328,16.6346572 17.1644297,16.6331338 C17.1644297,16.6320205 17.1644297,16.6312002 17.1633164,16.629501 L17.1644297,16.629501 C17.144625,16.5378193 17.1343125,16.4462783 17.1343125,16.3558564 C17.1343125,16.0481572 17.2391309,15.7523994 17.412041,15.5085703 C17.5846582,15.2657057 17.8277461,15.0729867 18.1119961,14.9738086 C18.1129336,14.9738086 18.1141055,14.9735156 18.1141055,14.9735156 C18.1156875,14.9735156 18.1156875,14.9721797 18.1165664,14.9721797 C18.2779043,14.9123906 18.4479316,14.8830158 18.6154277,14.8830158 C18.9216387,14.8830158 19.223332,14.975666 19.4777695,15.1453148 C19.7288613,15.3124424 19.9328613,15.5571609 20.0352949,15.8618947 C20.0361738,15.8634768 20.0361738,15.8655275 20.0371113,15.8671096 C20.0371113,15.8690432 20.0384004,15.870215 20.0391035,15.8715041 L20.0382832,15.8715041 L20.0384063,15.8714092 Z M19.1014336,19.6473896 C18.9811875,19.569501 18.8424023,19.5219463 18.6954551,19.5219463 C18.5770605,19.5219463 18.4538496,19.5558486 18.3446543,19.6286924 C17.3091094,20.2469092 16.0909219,20.5854639 14.8819453,20.5854639 C13.9744219,20.5854639 13.0726992,20.3939385 12.25575,19.9924014 L12.2515898,19.9904092 L12.2474883,19.9888857 C12.1246406,19.9387354 11.9842207,19.8312451 11.8311855,19.7294736 C11.7532969,19.679335 11.6719277,19.6291084 11.5818691,19.5922412 C11.4927773,19.5541143 11.3941934,19.5274131 11.2884844,19.5274131 C11.2008105,19.5274131 11.108748,19.5474346 11.0183965,19.5886084 C11.013709,19.590249 11.0091973,19.5922412 11.0045273,19.5936475 L11.0052305,19.5936475 C10.8628008,19.6484736 10.7514551,19.7479424 10.6798008,19.8655869 C10.604877,19.9873213 10.5681621,20.1287021 10.5681621,20.2696436 C10.5681621,20.3967217 10.5984199,20.5239404 10.6602891,20.6393643 C10.7194805,20.7487061 10.8103594,20.8440967 10.9294102,20.9085557 C12.0973008,21.6964248 13.4720801,22.0530029 14.8525605,22.0516008 C16.0970801,22.0516008 17.3490059,21.7632568 18.4638574,21.2388838 L18.4697754,21.2356611 L18.4753418,21.2324971 C18.6225117,21.1457783 18.8176055,21.0675967 19.0018652,20.9540244 C19.0930371,20.8957939 19.1819062,20.8286631 19.2583066,20.7415693 C19.3347129,20.65471 19.3959141,20.5477412 19.4305547,20.4208975 L19.4305547,20.4201943 C19.4447227,20.3644893 19.4518418,20.3098916 19.4518418,20.2557451 C19.4518418,20.1520342 19.4263945,20.0536787 19.3844121,19.9654717 C19.3212891,19.83329 19.2201035,19.7246924 19.1015625,19.6471729 L19.1014336,19.6473896 Z M10.9029375,17.7531357 C10.9049297,17.7531357 10.9073906,17.7538389 10.9100859,17.7549521 C11.0590371,17.8093975 11.2127344,17.8363271 11.3645859,17.8363271 C11.7441621,17.8363271 12.1127637,17.6809951 12.3920449,17.4276006 C12.6709629,17.173749 12.8617559,16.8139072 12.8617559,16.404583 C12.8617559,16.3939775 12.8617559,16.3831436 12.8610527,16.3703877 C12.8619316,16.3519131 12.8625762,16.3321084 12.8625762,16.3115654 C12.8625762,15.9051299 12.6746074,15.5444695 12.398291,15.2895879 C12.1211484,15.0339645 11.7533672,14.8778895 11.3722324,14.8778895 C11.2707598,14.8778895 11.16675,14.8898326 11.0655,14.9133475 C11.0639766,14.9133475 11.0630977,14.9137576 11.0616914,14.9137576 L11.059875,14.9137576 C10.5558984,15.0193154 10.1134922,15.3932555 9.95006836,15.9083584 L9.95006836,15.9111709 C9.90333984,16.0521826 9.88137891,16.1975771 9.88137891,16.3411904 C9.88137891,16.6567471 9.98568164,16.9639307 10.1651191,17.2170264 C10.3430039,17.4655342 10.5952852,17.6605518 10.8982383,17.7520869 C10.8999375,17.7520869 10.9010508,17.75279 10.9032188,17.7535518 L10.9029375,17.7531357 Z M26.7139922,14.0748527 L26.7139922,14.0770734 C26.717625,14.1286277 26.7187383,14.1792182 26.7187383,14.2301801 C26.7187383,14.7992877 26.5360313,15.3468826 26.231373,15.8111719 C25.9471172,16.2457207 25.5547852,16.6098691 25.1031797,16.8561387 C25.1321836,17.0829141 25.1490176,17.3113828 25.1490176,17.5388203 C25.1483145,18.7645664 24.7256016,19.9695469 23.9898105,20.9352891 L23.9898105,20.9359922 L23.9883457,20.9359922 C22.6276641,22.7457539 20.5380234,23.8130508 18.4284199,24.3515273 L18.4265449,24.3528164 C17.3016855,24.6262383 16.1415879,24.7656211 14.9817129,24.7656211 C13.2530273,24.7656211 11.5250098,24.4536211 9.91323633,23.8073672 L9.9125332,23.8057266 L9.91100977,23.8057266 C8.23981055,23.1170332 6.64709766,22.022291 5.67051563,20.4175605 C5.14525195,19.5613008 4.85683594,18.5571328 4.85683594,17.5481367 C4.85683594,17.3198145 4.87219336,17.0914863 4.90268555,16.8649453 C4.46265234,16.6173281 4.08158203,16.2661641 3.79881445,15.8466797 C3.49682813,15.3960334 3.30551953,14.8686146 3.28126172,14.3107828 L3.28126172,14.3021051 C3.28126172,13.520843 3.62093555,12.7807512 4.14827344,12.235159 C4.67599219,11.68964 5.39605664,11.3334293 6.16863867,11.3334293 L6.20060742,11.3334293 C6.28139063,11.3277223 6.36342773,11.3243795 6.44547656,11.3243795 C6.83336133,11.3243795 7.22250586,11.3874316 7.59169922,11.529041 L7.59380859,11.5306699 L7.59597656,11.5310215 C7.91124023,11.6636549 8.2245,11.8238836 8.50378711,12.0457547 C8.59443164,11.9983547 8.69294531,11.9450936 8.80406836,11.9029588 C10.4965547,10.9004191 12.463875,10.5137197 14.3814961,10.4021531 C14.3984121,9.4524293 14.5147266,8.45812266 14.9781211,7.58777168 C15.3643066,6.86451855 16.0334883,6.30193828 16.8311367,6.10699453 L16.834125,6.10543594 L16.8382852,6.10502578 C17.1418301,6.04627559 17.4479707,6.01919941 17.7523301,6.01919941 C18.5624531,6.01919941 19.3632246,6.21117656 20.1122871,6.51026953 C20.4439453,6.00977871 20.9174355,5.61951855 21.4728926,5.40031758 L21.477873,5.39727656 L21.4829121,5.39534883 C21.8090039,5.29394531 22.1532773,5.23437891 22.4991035,5.23437891 C22.8639199,5.23437891 23.2311035,5.30084414 23.5754531,5.45469258 L23.5754531,5.45365547 C23.5761563,5.45469258 23.5763906,5.45469258 23.5763906,5.45469258 C23.5790859,5.45588203 23.5810781,5.45691328 23.5831758,5.45691328 C24.0770684,5.64725918 24.4946191,5.9985 24.7907461,6.43519688 C25.0870957,6.87374766 25.2615645,7.39901484 25.2615645,7.93911855 C25.2615645,8.03851875 25.255998,8.13836484 25.2443555,8.23828477 L25.2433008,8.2402125 C25.2433008,8.24169492 25.2433008,8.24362852 25.2425977,8.24555625 C25.1845898,8.94299473 24.8310527,9.55579453 24.3305625,9.99241641 C23.8269551,10.4309678 23.1749121,10.6959381 22.5056602,10.6959381 C22.398252,10.6959381 22.2898008,10.6898525 22.1820176,10.6758352 C21.5182559,10.6248738 20.899377,10.3036746 20.444502,9.82588301 C19.9885195,9.34890703 19.6945488,8.71133145 19.6945488,8.02353633 C19.6945488,7.99015547 19.6974199,7.95610664 19.6983574,7.92294844 C19.0753945,7.64566406 18.4134844,7.41511348 17.7558105,7.41585527 C17.6607832,7.41585527 17.5656855,7.42112285 17.4706641,7.4306918 L17.4694922,7.4306918 C16.9773047,7.47816621 16.5195469,7.78816348 16.2977461,8.23494844 L16.2977461,8.23654219 C15.9611191,8.89236563 15.893918,9.65901387 15.8835293,10.4198016 C17.7711797,10.5428666 19.6698164,10.995808 21.3350801,11.9532469 L21.3377168,11.9532469 L21.3613828,11.9671184 C21.3930586,11.9859598 21.4513594,12.0180059 21.5044043,12.0459721 C21.6190078,11.9532469 21.7398457,11.857926 21.8778223,11.7754377 C22.3829824,11.4391811 22.9810957,11.2720535 23.5792852,11.2720535 C23.8445508,11.2720535 24.110707,11.305657 24.3687012,11.3720479 L24.3695801,11.3720479 L24.3803379,11.375165 C24.3838535,11.375458 24.3867598,11.3768701 24.3900586,11.3768701 L24.3900586,11.3772217 C24.9995215,11.5321084 25.550748,11.8823115 25.9656387,12.3540949 C26.3802305,12.8268434 26.6594414,13.4247322 26.7138926,14.0737313 L26.7138926,14.0749969 L26.7139922,14.0748527 Z M21.1543594,7.89767754 C21.1543594,7.92319629 21.1543594,7.94967773 21.1573477,7.97638301 L21.1573477,7.98060176 C21.1694355,8.30847656 21.3240234,8.61387539 21.5597695,8.83930723 C21.7961074,9.06496172 22.1098887,9.20442012 22.4282637,9.20590371 L22.4365254,9.20590371 C22.4592949,9.20746415 22.4827383,9.20746415 22.505209,9.20746415 C22.8264844,9.20804824 23.1453867,9.06926543 23.3852051,8.84479687 C23.6250352,8.61914238 23.7834785,8.31166699 23.7959414,7.98119648 L23.7966445,7.9797082 L23.7966445,7.97762812 C23.7987539,7.9523332 23.7995156,7.92815039 23.7995156,7.9025584 C23.7995156,7.56251777 23.6405508,7.23790723 23.3912344,6.99726797 C23.1430957,6.75699961 22.8087715,6.60856582 22.4791875,6.6091576 C22.3728867,6.6091576 22.2677813,6.62377207 22.1645215,6.65589258 L22.1615332,6.65618555 L22.1581934,6.65736914 C21.8867695,6.72828516 21.632332,6.89548652 21.4493262,7.11787793 C21.2657285,7.33937871 21.1543594,7.61317559 21.1543594,7.89765527 L21.1543594,7.89767754 Z M7.22139844,12.9572602 C6.96918164,12.8398336 6.70829297,12.7556385 6.450375,12.7571752 C6.40712695,12.7571752 6.36328125,12.7591945 6.3200332,12.7643209 L6.31382812,12.7643209 L6.30791016,12.7652115 C5.93752734,12.7753734 5.56388086,12.9369381 5.28341016,13.1957508 C5.00271094,13.4535252 4.81696875,13.8020227 4.80279492,14.1857549 L4.80279492,14.1890889 L4.8020918,14.1922061 C4.79968945,14.2232871 4.79863477,14.2542943 4.79863477,14.2838918 C4.79863477,14.5204512 4.87140234,14.7493705 4.99461328,14.9572963 C5.08549219,15.1124807 5.20514648,15.2541645 5.34044531,15.377451 C5.77306055,14.4296555 6.4490625,13.6255465 7.22127539,12.9572607 L7.22139844,12.9572602 Z M23.664457,17.5920908 C23.664457,16.7474795 23.3598047,15.8990771 22.8660586,15.2161834 C21.8824453,13.8473432 20.3566348,12.9545889 18.7691895,12.4569914 L18.7579863,12.4531359 C18.4533281,12.3595957 18.1457051,12.2768104 17.835334,12.2061176 C16.9076484,11.9948531 15.9565137,11.8894441 15.0062695,11.8894441 C13.730373,11.8894441 12.4547812,12.078157 11.2330371,12.4549166 C9.64589063,12.9588199 8.11496484,13.8452689 7.13341992,15.2185588 L7.13341992,15.2193029 C6.6359707,15.9050947 6.34429102,16.7566787 6.34429102,17.6041143 C6.34429102,17.9162549 6.38368359,18.2280381 6.46602539,18.5320225 L6.4669043,18.5327256 C6.64545703,19.2140654 6.99477539,19.822415 7.44704297,20.3523545 C7.89946289,20.8833311 8.45374219,21.3363428 9.03708984,21.7057588 C9.16623633,21.7855049 9.2959043,21.8619111 9.42883008,21.9366064 C11.1228047,22.8820342 13.0741758,23.2966963 15.0110156,23.2966963 C15.3385195,23.2966963 15.6680977,23.2853467 15.9934453,23.2616807 C17.9442305,23.1007119 19.9029492,22.5246299 21.4862461,21.3485889 L21.4869492,21.3470654 C21.9909258,20.9746846 22.4578887,20.5236709 22.8271523,20.0104951 C23.1977578,19.4976182 23.4696211,18.9236162 23.590166,18.3005771 L23.590166,18.2981162 C23.6402402,18.0651182 23.6642695,17.8292256 23.6642695,17.5921436 L23.664457,17.5920908 Z M25.2039141,14.2309266 C25.2032109,14.0257453 25.1565117,13.8217512 25.0538496,13.6311088 L25.0513887,13.6291811 L25.0502754,13.6260639 C24.9131191,13.343216 24.6972539,13.1298012 24.437625,12.9842607 C24.1775508,12.837607 23.8735605,12.7632785 23.5681641,12.7632785 C23.2924395,12.7632785 23.0176699,12.8252186 22.7742949,12.9474674 C23.548875,13.6199812 24.2285156,14.4282439 24.6679512,15.379749 C24.8091152,15.2566107 24.929584,15.1061736 25.0197129,14.9389723 C25.1372109,14.7196225 25.2039141,14.4737906 25.2039141,14.230926 L25.2039141,14.2309266 Z" id="Shape" fill="#FFFFFF" fill-rule="nonzero"></path>
    </g>
</svg>