<?xml version="1.0" encoding="UTF-8"?>
<svg width="30px" height="30px" viewBox="0 0 30 30" version="1.1" xmlns="http://www.w3.org/2000/svg" xmlns:xlink="http://www.w3.org/1999/xlink">
    <title>twitter-alt</title>
    <g id="twitter-alt" stroke="none" stroke-width="1" fill="none" fill-rule="evenodd">
        <rect id="Rectangle" fill="#00ABF1" fill-rule="nonzero" x="0" y="0" width="30" height="30" rx="4"></rect>
        <path d="M26,8.01229213 C25.227369,8.35381876 24.3973212,8.58429732 23.5257934,8.6881499 C24.4148962,8.15701812 25.0981627,7.31573803 25.420024,6.31407988 C24.5875932,6.80589603 23.6652766,7.16262965 22.6836814,7.35520201 C21.8982414,6.52096906 20.7781312,6 19.5393151,6 C17.1597604,6 15.2305286,7.92171784 15.2305286,10.2917079 C15.2305286,10.6279678 15.268732,10.9553259 15.3423088,11.2698509 C11.7613966,11.0904085 8.5870932,9.38225604 6.46207858,6.78534806 C6.09114121,7.41921971 5.87875145,8.15620214 5.87875145,8.94318217 C5.87875145,10.4321315 6.63909486,11.7454957 7.79524878,12.5151175 C7.08934328,12.492715 6.42514123,12.299846 5.8438248,11.9784964 C5.84360139,11.9961513 5.84360139,12.0142514 5.84360139,12.0323514 C5.84360139,14.1115543 7.32884028,15.8459665 9.29955211,16.2409031 C8.93799802,16.3384503 8.55723055,16.3912668 8.16477121,16.3912668 C7.88677298,16.3912668 7.61711544,16.3635975 7.35430918,16.314045 C7.90241178,18.0187109 9.49369661,19.2596751 11.3786185,19.2943173 C9.90447567,20.4455974 8.04666106,21.1317662 6.0276179,21.1317662 C5.6802132,21.1317662 5.33727672,21.1113666 5,21.071235 C6.90711406,22.2894258 9.17168633,23 11.6046363,23 C19.5291871,23 23.8629212,16.4605513 23.8629212,10.7894585 C23.8629212,10.602969 23.8586019,10.4180372 23.8506335,10.2338472 C24.6917774,9.62860921 25.422705,8.87308167 26,8.01229213 L26,8.01229213 Z" id="Path" fill="#FFFFFF" fill-rule="nonzero"></path>
    </g>
</svg>