<?xml version="1.0" encoding="UTF-8"?>
<svg width="10px" height="14px" viewBox="0 0 10 14" version="1.1" xmlns="http://www.w3.org/2000/svg" xmlns:xlink="http://www.w3.org/1999/xlink">
    <title>breadcrumb-arrow</title>
    <g id="breadcrumb-arrow" stroke="none" stroke-width="1" fill="none" fill-rule="evenodd">
        <path d="M3.81190478,3.5 C4.03497135,3.5 4.24880054,3.58908496 4.40490315,3.74647782 L4.40490315,3.74647782 L7.55814485,6.89414841 C7.72707231,7.05226198 7.8230423,7.27336818 7.8230423,7.50492746 C7.8230423,7.73648694 7.72707215,7.95759331 7.55814443,8.1157069 L7.55814443,8.1157069 L4.40704203,11.2612186 C4.25053975,11.4208867 4.03663794,11.5112678 3.81074714,11.5121959 C3.58717163,11.5112678 3.37326982,11.4208867 3.21814623,11.2626153 C3.0559632,11.0994644 2.97487168,10.8861416 2.97487168,10.6728187 C2.97487168,10.4594958 3.0559632,10.2461729 3.21873199,10.0824345 L3.21873199,10.0824345 L5.78328431,7.51788222 L3.21814623,4.92683289 C3.0559632,4.76368198 2.97487168,4.55035911 2.97487168,4.33703624 C2.97487168,4.12371337 3.0559632,3.9103905 3.21792518,3.74746221 C3.37500903,3.58908496 3.58883822,3.5 3.81190478,3.5 Z" id="Path" fill="#000000" fill-rule="nonzero"></path>
    </g>
</svg>