<svg xmlns="http://www.w3.org/2000/svg" viewBox="0 0 28 24">
    <g fill="#EA4848" fill-rule="nonzero">
        <path d="M16.865 23.981c1.583 0 3.025-.299 4.325-.897a9.7 9.7 0 003.332-2.501c.922-1.07 1.637-2.338 2.145-3.803.508-1.464.762-3.064.762-4.798 0-1.722-.254-3.316-.762-4.781-.508-1.465-1.223-2.73-2.145-3.794A9.839 9.839 0 0021.19.905C19.89.302 18.448 0 16.865 0h-6.54v23.981h6.54zm-1.789-4.279V4.279h1.915c.904 0 1.71.179 2.417.535a5.008 5.008 0 011.796 1.531c.489.664.864 1.473 1.125 2.428.26.955.391 2.024.391 3.21 0 1.196-.13 2.27-.391 3.226-.261.954-.636 1.763-1.125 2.427a5.008 5.008 0 01-1.796 1.531c-.708.357-1.513.535-2.417.535h-1.915zM3.214 9.73c.45 0 .87-.082 1.26-.245.39-.163.731-.389 1.023-.677.292-.288.52-.63.685-1.024.164-.395.247-.818.247-1.27 0-.45-.083-.87-.247-1.259a3.114 3.114 0 00-.685-1.015 3.33 3.33 0 00-1.023-.686 3.13 3.13 0 00-1.26-.253A3.175 3.175 0 00.247 5.255 3.198 3.198 0 000 6.515c0 .451.082.874.247 1.269.164.394.39.736.675 1.024.286.288.624.514 1.014.677.39.163.816.244 1.278.244zM3.214 21.182c.45 0 .87-.082 1.26-.245.39-.163.731-.388 1.023-.676.292-.289.52-.63.685-1.025.164-.394.247-.817.247-1.269 0-.45-.083-.87-.247-1.259a3.114 3.114 0 00-.685-1.015 3.33 3.33 0 00-1.023-.686 3.13 3.13 0 00-1.26-.254 3.175 3.175 0 00-2.967 1.955A3.198 3.198 0 000 17.968c0 .45.082.874.247 1.268.164.395.39.736.675 1.025.286.288.624.513 1.014.676.39.163.816.245 1.278.245z"/>
    </g>
</svg>
